HIERARCHY
ROOT Pelvis
{
	OFFSET 0.000000 0.941512 0.000000
	CHANNELS 6 Xposition Yposition Zposition Zrotation Yrotation Xrotation 
	JOINT Pelvis_L_Hip
	{
		OFFSET 0.000000 0.000000 0.000000
		CHANNELS 3 Zrotation Yrotation Xrotation
		JOINT L_Hip
		{
			OFFSET 0.062321 -0.080322 -0.016990
			CHANNELS 3 Zrotation Yrotation Xrotation
			JOINT L_Knee
			{
				OFFSET 0.093051 -0.381305 -0.029784
				CHANNELS 3 Zrotation Yrotation Xrotation
				JOINT L_Ankle
				{
					OFFSET -0.010371 -0.431000 -0.033614
					CHANNELS 3 Zrotation Yrotation Xrotation
					End Site #name: L_Foot
					{
						OFFSET 0.069299 -0.038670 0.119418
					}
				}
			}
		}
	}
	JOINT Pelvis_R_Hip
	{
		OFFSET 0.000000 0.000000 0.000000
		CHANNELS 3 Zrotation Yrotation Xrotation
		JOINT R_Hip
		{
			OFFSET -0.055334 -0.094904 -0.002373
			CHANNELS 3 Zrotation Yrotation Xrotation
			JOINT R_Knee
			{
				OFFSET -0.064207 -0.384370 -0.019592
				CHANNELS 3 Zrotation Yrotation Xrotation
				JOINT R_Ankle
				{
					OFFSET 0.025418 -0.419734 -0.065953
					CHANNELS 3 Zrotation Yrotation Xrotation
					End Site #name: R_Foot
					{
						OFFSET -0.057233 -0.039888 0.132134
					}
				}
			}
		}
	}
	JOINT Pelvis_Spine1
	{
		OFFSET 0.000000 0.000000 0.000000
		CHANNELS 3 Zrotation Yrotation Xrotation
		JOINT Spine1
		{
			OFFSET -0.005562 0.124093 -0.043360
			CHANNELS 3 Zrotation Yrotation Xrotation
			JOINT Spine2
			{
				OFFSET 0.012244 0.139499 0.029894
				CHANNELS 3 Zrotation Yrotation Xrotation
				JOINT Spine3
				{
					OFFSET -0.002556 0.056561 0.009225
					CHANNELS 3 Zrotation Yrotation Xrotation
					JOINT Spine3_Neck
					{
						OFFSET 0.000000 0.000000 0.000000
						CHANNELS 3 Zrotation Yrotation Xrotation
						JOINT Neck
						{
							OFFSET -0.005205 0.217920 -0.024551
							CHANNELS 3 Zrotation Yrotation Xrotation
							End Site #name: Head
							{
								OFFSET 0.002365 0.091850 0.046637
							}
						}
					}
					JOINT Spine3_L_Collar
					{
						OFFSET 0.000000 0.000000 0.000000
						CHANNELS 3 Zrotation Yrotation Xrotation
						JOINT L_Collar
						{
							OFFSET 0.072225 0.116603 -0.009480
							CHANNELS 3 Zrotation Yrotation Xrotation
							JOINT L_Shoulder
							{
								OFFSET 0.115937 -0.058643 -0.021018
								CHANNELS 3 Zrotation Yrotation Xrotation
								JOINT L_Elbow
								{
									OFFSET 0.021994 -0.254722 -0.024492
									CHANNELS 3 Zrotation Yrotation Xrotation
									End Site #name: L_Wrist
									{
										OFFSET 0.048810 -0.240214 0.103329
									}
								}
							}
						}
					}
					JOINT Spine3_R_Collar
					{
						OFFSET 0.000000 0.000000 0.000000
						CHANNELS 3 Zrotation Yrotation Xrotation
						JOINT R_Collar
						{
							OFFSET -0.073372 0.120704 -0.024611
							CHANNELS 3 Zrotation Yrotation Xrotation
							JOINT R_Shoulder
							{
								OFFSET -0.108089 -0.054969 -0.020504
								CHANNELS 3 Zrotation Yrotation Xrotation
								JOINT R_Elbow
								{
									OFFSET -0.033684 -0.260739 0.009889
									CHANNELS 3 Zrotation Yrotation Xrotation
									End Site #name: R_Wrist
									{
										OFFSET -0.067980 -0.232763 0.118463
									}
								}
							}
						}
					}
				}
			}
		}
	}
}
MOTION
Frames: 8
Frame Time: 0.041667
0.000000 0.963492 0.000000 -4.710999 -1.402244 0.131023 0.000000 0.000000 0.000000 3.015568 -0.408934 -0.815708 5.574545 -0.265706 -2.387835 -9.049186 -6.720229 10.907737 0.000000 0.000000 0.000000 1.384845 -0.484836 2.284526 -1.705395 -0.559773 -11.087239 5.414766 2.103756 10.207625 0.000000 0.000000 0.000000 6.039978 -0.191567 -7.857519 -7.792654 4.529364 26.144436 6.055387 2.817805 -25.044614 0.000000 0.000000 0.000000 -0.506990 -0.211423 18.557224 0.000000 0.000000 0.000000 21.110503 -9.577315 -3.271434 -22.441082 2.609590 4.358563 4.330048 3.650427 11.795902 0.000000 0.000000 0.000000 -22.579234 5.538432 0.398033 23.143645 -0.369254 6.341495 -4.712197 -5.728445 14.957725 
0.000380 0.963223 0.000250 -4.806268 -1.361658 0.104555 0.000000 0.000000 0.000000 3.063179 -0.391109 -0.717397 5.673179 -0.251988 -2.644519 -9.634613 -7.301567 11.459241 0.000000 0.000000 0.000000 1.487779 -0.503637 2.346243 -1.769429 -0.561676 -11.163164 5.480569 2.013181 10.420807 0.000000 0.000000 0.000000 6.164707 -0.219446 -7.783446 -7.829400 4.504827 25.868467 6.171534 2.846438 -24.723381 0.000000 0.000000 0.000000 -0.547013 -0.187639 18.590278 0.000000 0.000000 0.000000 20.861450 -9.632570 -3.334643 -22.155692 2.634676 4.501179 4.008704 3.525526 11.610387 0.000000 0.000000 0.000000 -22.518530 5.457569 0.447008 23.023494 -0.394746 6.370164 -4.617199 -5.702621 14.987046 
0.000919 0.963135 0.000529 -4.778244 -1.334253 0.153826 0.000000 0.000000 0.000000 3.015954 -0.409410 -0.816109 5.684223 -0.264547 -2.486166 -9.370088 -6.850019 11.314062 0.000000 0.000000 0.000000 1.445629 -0.482884 2.247868 -1.814522 -0.549722 -11.033580 5.412982 1.977332 10.311975 0.000000 0.000000 0.000000 6.173890 -0.195117 -7.968347 -7.825779 4.531250 26.090446 6.168939 2.853032 -24.724793 0.000000 0.000000 0.000000 -0.563138 -0.181989 18.733656 0.000000 0.000000 0.000000 20.828911 -9.556618 -3.276664 -22.215313 2.600882 4.365363 4.024662 3.577109 11.926976 0.000000 0.000000 0.000000 -22.424961 5.437753 0.442649 23.101752 -0.448472 6.530367 -4.558038 -5.726191 15.189302 
0.001286 0.962973 0.000930 -4.836038 -1.139043 0.241881 0.000000 0.000000 0.000000 3.075931 -0.467417 -1.061379 5.684168 -0.277841 -2.296950 -9.405986 -6.986968 11.272965 0.000000 0.000000 0.000000 1.501810 -0.472745 2.166582 -1.826741 -0.543178 -10.947787 5.291730 1.826231 10.202165 0.000000 0.000000 0.000000 6.236014 -0.202186 -7.978679 -7.749041 4.479792 26.019643 6.102104 2.785954 -24.715662 0.000000 0.000000 0.000000 -0.516015 -0.223387 18.779053 0.000000 0.000000 0.000000 20.770064 -9.500993 -3.229295 -22.248296 2.602524 4.360567 4.026112 3.638727 12.338804 0.000000 0.000000 0.000000 -22.324964 5.198980 0.600213 23.167417 -0.477084 6.612705 -4.526810 -5.762830 15.411973 
0.001437 0.963071 0.002026 -4.906252 -1.123911 0.175467 0.000000 0.000000 0.000000 3.129937 -0.446567 -0.948426 5.675733 -0.273386 -2.348399 -9.679908 -7.538747 11.372145 0.000000 0.000000 0.000000 1.503621 -0.452147 2.053253 -1.694858 -0.516445 -10.474568 5.204789 1.823568 10.025625 0.000000 0.000000 0.000000 6.285489 -0.239770 -7.760638 -7.748030 4.472463 25.978849 6.054207 2.774072 -24.750810 0.000000 0.000000 0.000000 -0.448804 -0.265906 18.587091 0.000000 0.000000 0.000000 20.686816 -9.482239 -3.221522 -22.261638 2.648298 4.517312 4.043281 3.650271 12.379369 0.000000 0.000000 0.000000 -22.314355 5.074708 0.693330 23.399355 -0.452138 6.559517 -4.521388 -5.770183 15.455530 
0.001500 0.964538 0.001686 -5.183960 -1.084733 0.056285 0.000000 0.000000 0.000000 3.420457 -0.496253 -1.091171 5.678220 -0.307599 -1.883686 -9.428428 -6.890628 11.348978 0.000000 0.000000 0.000000 1.589697 -0.270536 1.024210 -1.258215 -0.389831 -8.260084 4.987509 1.913691 9.508541 0.000000 0.000000 0.000000 6.403619 -0.380954 -6.896212 -7.788794 4.407791 25.410732 6.161983 2.802089 -24.369054 0.000000 0.000000 0.000000 -0.275894 -0.372279 18.095188 0.000000 0.000000 0.000000 20.986010 -9.625679 -3.291783 -22.732284 2.993155 5.470793 3.809400 3.341367 10.805943 0.000000 0.000000 0.000000 -22.848051 5.126701 0.747036 23.945998 -0.505118 6.701881 -4.222857 -5.539553 14.844653 
0.002420 0.965974 0.001788 -5.287225 -0.902546 -0.029574 0.000000 0.000000 0.000000 3.645717 -0.618585 -1.602854 5.324222 -0.356297 -0.876302 -9.703104 -7.425720 11.441165 0.000000 0.000000 0.000000 1.475792 -0.108109 0.169218 -0.906844 -0.289196 -6.328466 4.823741 1.689056 9.363546 0.000000 0.000000 0.000000 6.342600 -0.482094 -6.111174 -7.768153 4.374834 25.287976 6.213261 2.821810 -24.017304 0.000000 0.000000 0.000000 -0.171861 -0.415305 16.821112 0.000000 0.000000 0.000000 20.986734 -9.479273 -3.156353 -22.853448 3.280451 6.346812 3.275577 3.182114 10.863345 0.000000 0.000000 0.000000 -22.806389 4.718102 1.042785 24.060904 -0.859441 7.662695 -4.113766 -5.459379 14.646372 
0.003644 0.967767 0.001213 -5.124364 -0.722519 0.161589 0.000000 0.000000 0.000000 3.709368 -0.903887 -2.944655 4.611327 -0.429925 1.062704 -9.378217 -7.230801 11.048446 0.000000 0.000000 0.000000 1.193150 0.078804 -0.791877 -0.753410 -0.212405 -4.940372 4.511013 1.259329 9.057214 0.000000 0.000000 0.000000 6.217544 -0.539772 -5.583243 -7.891091 4.459834 25.618406 5.937647 2.803243 -24.140580 0.000000 0.000000 0.000000 -0.015962 -0.467228 14.936522 0.000000 0.000000 0.000000 19.837154 -8.529592 -2.538477 -20.457232 2.901695 6.038530 4.099851 3.605983 11.949510 0.000000 0.000000 0.000000 -21.462521 3.821224 1.457926 22.522098 -0.890382 7.711474 -4.433520 -5.710775 15.309762 
